# xmcd
#
# Track frame offsets: 
#        150
#        19681
#        38747
#        58641
#        81803
#        104314
#        129822
#        152254
#        171568
#        195628
#        218928
#        240441
#        263722
#
# Disc length: 3797 seconds
#
# Revision: 0
# Processed by: cddbd v1.5.2PL0 Copyright (c) Steve Scherf et al.
# Submitted via: ExactAudioCopyFreeDBPlugin 1.0
#
DISCID=a00ed30d
DTITLE=Johnny Drummer - Bad attitude
DYEAR=2013
DGENRE=Blues
TTITLE0=Is it love or is it lust
TTITLE1=Another rooster is pecking my hen
TTITLE2=Bit her in the butt
TTITLE3=Bad attitude
TTITLE4=Make you happy
TTITLE5=One size fit all
TTITLE6=Sure sign of the blues
TTITLE7=Don't call me trash
TTITLE8=Ain't no secret in a small town
TTITLE9=U-turn on a one way street
TTITLE10=Better than good
TTITLE11=My women my money my whiskey
TTITLE12=Star 69
EXTD=
EXTT0=
EXTT1=
EXTT2=
EXTT3=
EXTT4=
EXTT5=
EXTT6=
EXTT7=
EXTT8=
EXTT9=
EXTT10=
EXTT11=
EXTT12=
PLAYORDER=
